. 
 
http://www.torrenting.com          :     Once & For all ;)


               www . Torrenting . Com 

(((((((((((((= Enjoy No RAR releases =))))))))))))))))))))


...................................NFO:....................................

.[center][img]http://lookpic.com/O/i2/48/sPS5i5oj.jpeg[/img][/center]

[img]http://lookpic.com/O/i2/298/l4OrvnSi.png[/img]

[b]Source: DVDR Thanx
Pretty much a straightforward DVDRip but I 
Hardcoded the subs for the non-English parts only
as there are about 240 lines of subs for the russian parts
Sample included
Enjoy :)

You and I DVDRip 2011 HC XviD AC3 -INFERNO.avi

Format                           : AVI
Format/Info                      : Audio Video Interleave
File size                        : 1.38 GiB
Duration                         : 1h 40mn
Overall bit rate                 : 1 958 Kbps
Writing library                  : VirtualDub build 32842/release

Video
ID                               : 0
Format                           : MPEG-4 Visual
Format profile                   : Advanced Simple@L5
Format settings, BVOP            : 2
Format settings, QPel            : Yes
Format settings, GMC             : No warppoints
Format settings, Matrix          : Default (H.263)
Muxing mode                      : Packed bitstream
Codec ID                         : XVID
Codec ID/Hint                    : XviD
Duration                         : 1h 40mn
Bit rate                         : 1 501 Kbps
Width                            : 720 pixels
Height                           : 304 pixels
Display aspect ratio             : 2.35:1
Frame rate                       : 23.976 fps
Color space                      : YUV
Chroma subsampling               : 4:2:0
Bit depth                        : 8 bits
Scan type                        : Progressive
Compression mode                 : Lossy
Bits/(Pixel*Frame)               : 0.286
Stream size                      : 1.06 GiB (77%)
Writing library                  : XviD 64

Audio
ID                               : 1
Format                           : AC-3
Format/Info                      : Audio Coding 3
Mode extension                   : CM (complete main)
Codec ID                         : 2000
Duration                         : 1h 40mn
Bit rate mode                    : Constant
Bit rate                         : 448 Kbps
Channel(s)                       : 6 channels
Channel positions                : Front: L C R, Side: L R, LFE
Sampling rate                    : 48.0 KHz
Bit depth                        : 16 bits
Compression mode                 : Lossy
Stream size                      : 323 MiB (23%)
Alignment                        : Aligned on interleaves
Interleave, duration             : 42 ms (1.00 video frame)
Interleave, preload duration     : 512 ms[/b]

[IMG]http://lookpic.com/O/i2/1964/WcslQxoJ.png[/IMG]
[center][img]http://lookpic.com/O/i2/13/vGcNuxFJ.png[/img][/center]
[center][img]http://lookpic.com/O/i2/1425/ddkUUB3D.png[/img][/center]
[center][img]http://lookpic.com/O/i2/1024/1H1eHSTH.png[/img][/center]
[center][img]http://lookpic.com/O/i2/702/3gu04Mx4.png[/img][/center]